# xmcd
#
# Track frame offsets:
#	150
#	10146
#	29495
#	46672
#	57930
#	76593
#	90488
#	97503
#	118175
#	136040
#	150937
#	166709
#	175974
#	193883
#	203670
#	214662
#
# Disc length: 3026 seconds
#
# Revision: 1
# Processed by: cddbd v1.5.2PL0 Copyright (c) Steve Scherf et al.
# Submitted via: audiograbber 1.83.01
#
DISCID=b50bd010
DTITLE=Country Love - Romatic Country Songs Volume One
DYEAR=1999
DGENRE=Country
TTITLE0=Johnny Cash - Ballad Of A Teenage Queen
TTITLE1=Freddy Locklin - Coward Of The Country
TTITLE2=Jeany Wilson - Blue Bayon
TTITLE3=Patsy Cline - I've Loved and Love Again
TTITLE4=Donna Jannings and Freddy Lokin - Islands In The Stream
TTITLE5=Donna Jannings - I Will Always Love You
TTITLE6=Waylon Jennings - Treat Me Mean, Treat Me Cruel
TTITLE7=Jack Dundy - How Do I Live
TTITLE8=Freddy Lokin - Lucille
TTITLE9=Johnny Turner - Take Me Home Country Rose
TTITLE10=Johnny Turner - Calypso
TTITLE11=Conway Twitty - Ever Since You Walked Away
TTITLE12=Earl Duffy - Shut Up And Drive
TTITLE13=Kenny Rogers - Where Does Rosie Go
TTITLE14=Nelson Jones - Adios Amigo
TTITLE15=Lynn Anderson - I Never Promised A Rose Garden
EXTD=Volume One
EXTT0=
EXTT1=
EXTT2=
EXTT3=
EXTT4=
EXTT5=
EXTT6=
EXTT7=
EXTT8=
EXTT9=
EXTT10=
EXTT11=
EXTT12=
EXTT13=
EXTT14=
EXTT15=
PLAYORDER=
